<?xml version="1.0" encoding="UTF-8"?>
<svg fill="currentColor" role="img" aria-label="HeraldMedia.Ai" id="Layer_1" xmlns="http://www.w3.org/2000/svg" version="1.1" xmlns:xlink="http://www.w3.org/1999/xlink" viewBox="0 0 946.27 1046.26">
  <path d="M614.18,583.4s59.06-33.75,59.06-105.47v-248.91s-4.92-72.42,50.63-107.58L886.3,15.97s61.17-46.41,59.06,18.98v647.59s16.88,101.25-94.92,177.19l-286.88,183.52s-31.64,14.77-31.64-21.09l-1.8-295.32s-6.99-86.49,84.06-143.44Z"/>
  <path d="M332.08,462.86s-59.06,33.75-59.06,105.47v248.91s5.7,70.15-50.63,107.58l-162.42,105.47S-1.2,1076.7.91,1011.3V363.72s-16.88-101.25,94.92-177.19L382.71,3.01s31.64-14.77,31.64,21.09l1.8,295.32s6.99,86.49-84.06,143.44Z"/>
</svg>
