<svg width="536" height="399" viewBox="0 0 536 399" fill="none" xmlns="http://www.w3.org/2000/svg">
<path fill-rule="evenodd" clip-rule="evenodd" d="M259.814 13.4627C260.225 11.1954 263.836 11.1854 264.259 13.4504C270.519 46.9845 281.266 79.17 296.5 110C303.189 128.063 299.404 143.522 285.135 156.378C285.046 156.459 284.947 156.533 284.844 156.595C265.596 168.338 248.148 166.137 232.5 150C224.16 138.81 222.144 126.529 226.453 113.145C226.484 113.049 226.523 112.955 226.568 112.864C242.461 81.223 253.541 48.0869 259.814 13.4627Z" fill="#A3F4FF"/>
<path fill-rule="evenodd" clip-rule="evenodd" d="M134.9 66.3146C135.533 65.5583 136.641 65.3584 137.386 66.005C138.836 67.2638 139.874 68.9289 140.5 71C180.707 161.069 221.098 251.05 261.674 340.954C262.383 342.524 264.614 342.523 265.32 340.951C305.042 252.603 344.734 164.351 384.407 76.2066C384.469 76.0693 384.544 75.9376 384.643 75.8238C385.264 75.1057 385.966 74.9474 386.752 75.3548C386.921 75.4424 387.063 75.5735 387.187 75.7181C399.651 90.29 412.294 104.72 425.118 119.017C425.653 119.613 425.781 120.471 425.443 121.197C391.258 194.647 357.209 268.136 323.304 341.672C322.694 342.995 323.657 344.505 325.114 344.51C379.788 344.688 434.461 345.18 489.135 345.987C489.687 345.995 490.211 346.231 490.583 346.639C504.92 362.37 519.094 378.22 533.114 394.206C534.244 395.494 533.334 397.512 531.621 397.52C355.874 398.321 180.138 398.163 4.39163 397.029C2.6759 397.017 1.77015 394.993 2.90595 393.707C16.9768 377.776 31.1421 361.921 45.4096 346.152C45.7858 345.737 46.3192 345.498 46.8799 345.495C98.5478 345.173 150.216 344.841 201.883 344.519C203.341 344.51 204.299 342.996 203.684 341.675C168.041 265.145 132.66 188.479 97.5388 111.678C97.211 110.961 97.3349 110.119 97.8548 109.526C110.402 95.2278 122.75 80.8296 134.9 66.3146Z" fill="#52EEE6"/>
</svg>
