<svg width="387" height="300" viewBox="0 0 387 300" fill="none" xmlns="http://www.w3.org/2000/svg">
<path d="M386.046 63.6072C386.41 86.1903 374.574 101.074 351.098 100.987C345.915 100.968 340.656 100.87 335.466 100.912C332.414 100.893 326.014 101.468 323.428 101.259C309.305 103.055 295.148 105.03 286.078 117.437C273.938 134.046 270.711 157.702 265.789 177.388C262.043 192.363 259.301 211.15 240.393 213.618C234.631 214.315 228.828 212.709 224.239 209.156C212.636 200.185 211.018 181.498 208.05 167.945L196.544 114.572C195.305 108.732 193.497 97.0953 190.716 92.3818C187.704 97.6535 186.35 106.952 185.053 113.089L177.145 149.674C175.167 159.13 173.124 168.576 171.086 178.02C168.839 188.437 163.995 200.742 152.72 204.1C147.732 205.618 142.341 205.049 137.782 202.519C122.82 194.131 122.73 167.814 116.235 153.393L116.022 153.822C113.677 158.595 111.608 164.606 109.48 169.532C98.8508 194.131 78.1211 206.645 51.6555 207.616C33.9679 208.266 10.657 205.217 0 223.16C0.135348 212.074 1.83015 202.556 10.0633 194.423C22.8492 181.676 42.0051 186.971 57.8386 184.295C71.3373 182.015 83.7771 173.72 88.79 160.664C94.0303 147.02 102.688 119.844 123.386 128.374C129.829 130.729 134.332 136.192 136.518 142.593C139.186 147.786 144.876 175.848 147.172 177.052C148.653 175.863 151.752 159.323 152.421 156.155L161.378 113.331C163.082 105.097 164.793 95.7758 167.1 87.7345C169.107 80.7385 173.983 73.8158 180.653 70.4754C185.99 67.8487 192.138 67.3885 197.807 69.1916C216.295 75.622 216.046 97.9877 220.262 114.013C220.723 115.761 221.413 118.659 221.588 120.399C222.851 125.392 223.946 130.882 224.991 135.953C225.645 138.834 226.454 142.048 226.889 144.945C227.502 147.568 229.503 155.748 229.665 158.209C231.529 165.238 234.774 183.676 237.3 188.763C240.035 188.67 241.006 180.863 241.663 178.384C248.355 153.116 253.673 112.33 275.4 95.3961C277.821 92.8759 281.013 90.7947 283.988 88.9773C298.499 80.1131 314.106 79.1423 330.535 78.3831C350.716 77.4503 373.102 82.9513 386.046 63.6072Z" fill="#2AA0DB"/>
<path d="M386.046 63.6072C386.41 86.1903 374.574 101.074 351.099 100.987C345.915 100.968 340.657 100.87 335.467 100.912C332.414 100.893 326.014 101.468 323.428 101.259C313.718 100.081 302.199 102.978 294.231 108.626C293.048 109.464 288.935 112.702 288.039 112.908L288.356 112.337C287.55 111.225 286.717 109.675 285.702 108.87C285.039 109.504 284.66 109.609 283.838 109.976C282.995 109.299 282.597 108.813 281.891 108.02C281.06 108.255 280.932 108.243 280.061 108.297C277.958 107.296 278.894 106.885 277.977 104.314L277.6 104.199C276.393 105.598 277.41 106.175 276.219 107.407C275.223 107.327 274.246 106.357 273.72 105.561L274.476 103.567L274.716 103.684L275.257 105.296C275.226 103.955 275.459 102.995 274.8 101.936C273.393 101.197 273.319 100.828 272.672 99.343C274.218 97.885 274.479 97.3228 275.4 95.3962C277.821 92.8759 281.013 90.7947 283.988 88.9773C298.5 80.1131 314.107 79.1423 330.535 78.3831C350.716 77.4503 373.103 82.9513 386.046 63.6072Z" fill="#2AA0DB"/>
<path d="M221.589 120.403L221.52 121.496C221.471 122.385 221.589 122.492 221.044 123.148C220.546 122.56 214.66 92.8382 213.527 89.0973C212.491 85.6738 210.988 82.4099 209.059 79.398C206.439 75.3765 201.837 71.456 197.074 69.9996C196.072 69.6922 195.285 69.9516 194.793 69.2733C195.72 68.806 196.719 69.0758 197.808 69.1953C216.296 75.6257 216.047 97.9913 220.263 114.016C220.724 115.765 221.415 118.663 221.589 120.403Z" fill="#2AA0DB"/>
<path d="M237.301 188.765L238.008 189.446L237.945 189.981C233.592 189.571 231.134 166.051 229.663 162.156C229.42 161.512 229.112 159.085 229.109 158.375L229.666 158.21C231.53 165.239 234.775 183.678 237.301 188.765Z" fill="#2AA0DB"/>
<path d="M136.518 142.595C136.771 144.45 137.595 146.628 137.671 148.059C133.793 137.673 131.717 132.668 120.769 128.45C121.575 128.172 122.507 128.323 123.386 128.377C129.829 130.732 134.332 136.195 136.518 142.595Z" fill="#2AA0DB"/>
<path d="M226.891 144.946C226.732 146.296 227.04 146.962 226.667 148.234C225.817 146.305 223.235 136.741 224.24 135.403L224.993 135.954C225.646 138.835 226.455 142.049 226.891 144.946Z" fill="#2AA0DB"/>
<path d="M324.754 117.663L324.95 116.365C326.555 115.778 347.193 115.934 350.348 115.985C350.348 120.907 350.46 126.308 350.333 131.188L350.351 207.376L350.376 227.585C350.392 234.408 350.712 241.78 349.253 248.422C347.511 256.369 343.553 263.662 337.84 269.453C324.648 282.683 312.681 281.986 295.472 281.989L270.474 281.986L181.708 281.989C176.488 281.967 163.887 281.369 159.596 283.159C146.943 288.436 141.79 303.346 124.945 299.313C121.317 298.445 116.903 296.118 114.287 293.349C105.967 284.546 108.371 272.769 107.672 262.383L107.316 262.623C105.107 264.123 101.704 267.44 99.6967 269.4C90.4115 278.476 83.5125 283.803 70.0456 281.429C59.5317 279.621 50.1852 273.662 44.107 264.898C34.456 250.871 35.5198 239.256 35.6716 222.921C43.2411 223.13 53.8082 223.036 61.2887 221.86C61.3124 228.848 61.1372 236.257 61.6867 243.189C63.7997 249.711 66.3171 253.475 72.9651 256.083C77.6702 256.54 80.576 256.325 84.2384 253.018C92.0827 245.933 99.0763 236.552 110.94 238.061C127.862 240.211 130.822 255.128 130.379 269.614C130.34 270.887 130.28 275.031 130.559 276.092C133.797 275.172 147.508 258.724 156.718 257.209C165.023 255.84 169.951 256.217 178.222 256.22L203.317 256.235L295.235 256.313L296.107 256.291L306.054 256.27C315.497 256.192 322.796 251.805 324.526 241.736C325.295 237.249 324.875 231.269 324.866 226.614L324.85 202.025C324.859 174.087 325.118 145.571 324.754 117.663Z" fill="#2AA0DB"/>
<path d="M324.754 117.663L324.95 116.365C326.556 115.778 347.194 115.934 350.349 115.985C350.349 120.907 350.461 126.308 350.333 131.188C350.003 131.232 350.224 131.179 349.745 131.529L349.674 132.888C348.311 134.998 348.74 138.246 348.634 140.863C348.361 148.704 348.314 156.554 348.497 164.401L348.205 164.476L347.623 164.23C346.783 165.534 348.301 171.063 346.811 172.603C346.802 171.872 346.758 171.588 346.646 170.864L346.189 170.587C345.066 170.82 344.384 171.349 344.067 172.429C344.359 173.412 344.44 173.642 344.574 174.694L344.201 175.114C343.245 174.05 342.993 173.81 342.508 172.485C341.033 172.737 342.769 173.891 341.752 175.282L341.575 174.236C340.731 174.193 340.84 174.383 339.966 175.132C340.349 173.782 341.024 174.504 341.537 172.954L341.251 172.687L340.594 173.013C339.633 172.905 340.056 172.954 339.095 172.114L339.779 170.966L339.583 170.577C338.472 170.611 339.698 170.873 338.195 171.71L337.511 170.966L337.368 171.361C337.965 172.425 338.448 172.724 339.393 173.539L339.241 174.118C337.589 173.178 338.027 174.295 336.276 174.771L335.821 173.751C335.261 174.131 335.485 174.028 335.143 174.868C333.696 175.067 333.566 174.784 332.71 173.801L332.162 173.788L331.973 174.264L332.853 175.307L332.539 175.568C331.643 175.173 331.136 174.964 330.212 174.656C329.48 175.036 329.77 174.765 329.446 175.602C329.487 176.598 329.717 176.841 330.218 177.696L330.392 177.989C329.325 176.937 329.235 177.198 329.038 176.013C329.455 175.117 329.826 174.628 329.586 173.698L329.294 173.695L327.89 175.154C327.464 167.929 327.554 161.43 327.417 154.236C327.234 146.572 326.957 138.915 326.587 131.259C326.419 127.326 326.363 123.297 326.276 119.353C326.254 118.49 325.619 118.312 324.754 117.663Z" fill="#2AA0DB"/>
<path d="M295.237 256.315L296.108 256.293C299.509 257.329 307.225 255.876 311.12 256.809L311.186 257.102C307.639 258.231 273.397 257.556 267.566 257.55L159.864 257.643L160.271 257.285C169.306 257.503 179.791 257.074 188.956 257.005L250.086 256.654L281.633 256.66C284.885 256.663 292.436 257.021 295.237 256.315Z" fill="#2AA0DB"/>
<path d="M72.9668 256.084C73.7192 256.734 75.2494 256.566 75.741 257.241C70.9515 257.275 66.8559 254.503 64.0314 250.794C62.7255 249.077 60.8938 245.635 61.1981 243.423L61.6885 243.19C63.8014 249.711 66.3189 253.476 72.9668 256.084Z" fill="#2AA0DB"/>
<path d="M329.07 178.729L329.571 178.791C329.985 179.784 329.922 179.267 329.642 180.403L329.306 180.251C328.255 179.946 328.613 180.251 327.984 179.551L328.311 179.096L328.737 179.093L329.07 178.729Z" fill="#2AA0DB"/>
<path d="M259.63 0.18133L292.835 0.0836225C297.822 0.0789553 310.414 -0.234363 314.413 0.741386C325.399 2.49655 335.231 8.56853 341.722 17.6079C343.545 20.1188 346.896 25.9329 347.568 28.9516C348.094 30.4 348.561 31.4921 348.81 33.0226C350.792 39.5834 350.602 55.9269 350.294 63.3965L324.78 63.5091C324.74 59.4904 324.743 55.4714 324.786 51.4529C324.842 43.7353 325.409 36.4626 319.344 30.5876C313.591 25.0147 307.599 25.8433 300.262 25.8367L283.146 25.8361L226.664 25.8327L126.958 25.8445L96.655 25.8398C90.7367 25.8255 84.7942 25.787 78.8749 25.8448C73.6651 25.8952 69.6389 27.3996 66.0312 31.343C63.6948 33.8518 62.1469 36.9913 61.5791 40.3722C60.9459 44.2621 61.1195 50.6713 61.1198 54.8183L61.1366 76.1957L61.2293 154.628C61.2617 159.18 61.3273 163.713 61.1721 168.265C52.6461 170.3 44.5172 170.462 35.8344 170.58C35.5251 153.162 35.5852 133.18 35.8773 115.759C35.6054 107.318 35.8393 97.4643 35.8372 88.8702L35.7641 47.1078C35.8207 33.4896 38.897 21.9477 48.9457 12.0832C54.5036 6.71505 61.4247 2.96949 68.9588 1.25197C75.5908 -0.19485 82.641 0.146472 89.4268 0.151761L111.343 0.16515C135.282 0.163594 159.621 -0.0990181 183.526 0.189724L232.887 0.145228C240.827 0.143673 251.879 -0.203556 259.63 0.18133Z" fill="#2AA0DB"/>
<path d="M259.629 0.178541L292.834 0.0808335C297.822 0.0761663 310.414 -0.237152 314.412 0.738597C325.399 2.49376 335.231 8.56574 341.721 17.6051C343.544 20.116 346.896 25.9301 347.568 28.9488C348.093 30.3972 348.56 31.4893 348.809 33.0198C349.503 43.1351 349.444 51.8086 349.263 62.0188C341.559 62.0984 333.859 62.1189 326.155 62.0804L326.176 50.7351C326.186 39.3936 325.206 27.3184 310.672 24.7801C306.251 24.0081 300.619 24.4238 296.07 24.449L273.176 24.571L191.006 24.6171C186.246 23.0542 170.727 24.9935 165.022 24.2166C163.088 23.9531 158.465 25.2894 157.349 23.2598L157.66 22.5601C158.385 22.4642 158.02 22.4282 158.741 22.8815L159.07 22.6198C159.193 21.4337 159.319 21.9515 158.819 20.9866C157.731 20.9035 157.929 21.0333 156.775 21.6686L156.462 21.5187C157.359 20.3917 157.175 20.991 157.299 19.757L157.022 19.4863L156.408 19.887L156.304 19.0127C155.752 18.6776 155.172 18.4959 154.558 18.3033L154.432 17.6813C155.207 16.261 154.824 16.475 156.042 15.8163L155.445 15.9287L155.863 15.5951C156.195 16.2874 156.145 16.2874 156.736 16.76C157.66 16.4987 157.281 16.733 157.933 16.0653C157.922 15.1349 158 15.1461 157.453 14.419C157.007 14.606 157.232 14.6035 156.779 14.4227L156.131 12.2562L155.886 12.6408C155.584 12.2575 155.401 12.0412 155.084 11.6853L154.415 12.3629C153.631 10.9438 153.578 10.9121 152.108 11.0829C152.246 10.3022 152.249 10.4074 152.701 9.75992C151.769 8.49916 150.708 7.4562 149.625 6.32394C148.65 6.45991 148.874 6.45837 148.014 7.11986C148.556 6.05917 148.862 5.94 148.718 4.99319L148.144 4.94309C147.637 5.58653 147.562 5.83202 146.846 6.17895C147.178 5.05354 148.598 4.70009 147.852 3.25669C147.245 4.05011 147.543 3.94556 146.795 4.27444L146.647 3.08276L146.133 2.78344L145.704 2.85437L145.469 2.40602C144.937 2.37428 144.855 2.48008 144.361 2.67641L144.271 1.7971C166.83 1.89387 189.254 1.3612 211.79 1.18074L242.497 0.906304C247.46 0.879234 252.451 0.930876 257.414 0.886383C258.895 0.873314 258.904 0.959824 259.629 0.178541Z" fill="#2AA0DB"/>
<path d="M314.412 0.739261C325.398 2.49443 335.231 8.56641 341.721 17.6058C343.544 20.1167 346.895 25.9307 347.568 28.9495L347.452 31.0173L347.185 30.9542C346.497 29.1704 345.772 27.1738 345.063 25.572C339.668 13.3758 328.379 5.13075 315.619 1.9969C314.3 1.673 313.074 1.59212 311.721 1.06784L312.25 0.684814C313.049 0.881458 313.597 0.791222 314.412 0.739261Z" fill="#2AA0DB"/>
<path d="M191.005 24.6186L273.175 24.5726L296.07 24.4506C300.618 24.4254 306.25 24.0097 310.671 24.7817C325.205 27.32 326.185 39.3952 326.176 50.7367L326.154 62.082C333.858 62.1205 341.559 62.1 349.263 62.0204C349.443 51.8102 349.502 43.1367 348.808 33.0214C350.79 39.5822 350.601 55.9257 350.293 63.3953L324.779 63.5079C324.738 59.4892 324.741 55.4702 324.785 51.4517C324.841 43.7341 325.407 36.4614 319.343 30.5864C313.59 25.0135 307.597 25.8421 300.261 25.8355L283.145 25.8349L226.663 25.8315L126.957 25.8433L96.6538 25.8386C90.7355 25.8243 84.7929 25.7858 78.8737 25.8436C73.6639 25.894 69.6377 27.3984 66.03 31.3418C63.6936 33.8506 62.1457 36.9901 61.5778 40.371C60.9447 44.2609 61.1183 50.6701 61.1186 54.8171L61.1354 76.1945L61.2281 154.627C59.6288 150.56 60.1827 104.681 60.2754 96.9961C59.3563 97.9818 60.0106 141.132 59.7135 146.412L59.4291 146.415C59.1599 145.619 58.9953 144.748 58.9966 143.904C59.0268 121.439 59.084 98.9628 59.2713 76.5026C59.2772 75.8019 59.3889 75.407 59.8441 74.8971L60.1036 75.9157C60.2972 75.1164 60.2147 75.0119 60.1764 74.1481L59.9288 73.9394L59.6531 73.9611C59.6366 73.9154 60.3348 51.1655 60.2853 48.7958C59.7912 25.2055 70.8621 24.5919 89.9337 24.604L111.795 24.6364L191.005 24.6186Z" fill="#2AA0DB"/>
<path d="M35.8775 115.759C35.6056 107.319 35.8395 97.4649 35.8374 88.8708L35.7643 47.1084C35.8209 33.4902 38.8972 21.9484 48.9459 12.0838C54.5038 6.71566 61.4249 2.9701 68.959 1.25258C75.591 -0.194239 82.6412 0.147083 89.427 0.152373L111.343 0.165761C135.282 0.164205 159.621 -0.0984066 183.527 0.190335C179.357 1.08892 166.5 0.502098 161.62 0.512988C141.799 0.452004 121.978 0.543806 102.158 0.788676C90.4743 0.965406 76.8636 -0.0912475 65.5843 3.14527C54.5331 6.31646 42.148 18.9642 39.255 30.1255C37.423 37.1929 37.5465 47.4777 37.4491 54.9981C37.3928 68.1775 37.4379 81.357 37.5844 94.5358C37.6047 101.689 38.3387 109.157 35.8775 115.759Z" fill="#2AA0DB"/>
</svg>
