<svg width="209" height="209" viewBox="0 0 209 209" fill="none" xmlns="http://www.w3.org/2000/svg">
<rect x="0.943359" y="0.942871" width="208" height="208" rx="38.9695" fill="#22242E"/>
<path d="M158.08 162.391L146.736 173.736L114.22 141.219L114.22 167.729L96.9043 167.729L96.9053 140.854L63.8994 173.86L53.0391 162.999L89.3945 126.644C94.4552 127.019 99.9997 127.229 105.812 127.229C111.662 127.229 117.239 127.018 122.325 126.638L158.08 162.391Z" fill="#8F9FFE"/>
<path d="M52.709 48.3955L64.0508 37.0537L96.5879 69.5908L96.5879 43.0664L113.903 43.0664L113.903 69.9209L146.882 36.9424L157.742 47.8027L121.388 84.1582C116.321 83.7814 110.768 83.5713 104.946 83.5713C99.112 83.5713 93.5485 83.7818 88.4727 84.1602L52.709 48.3955Z" fill="#FF815A"/>
<path d="M162.384 52.7122L173.725 64.053L141.209 96.5676L167.724 96.5686L167.724 113.884L140.837 113.883L173.848 146.894L162.99 157.752L126.636 121.399C127.011 116.338 127.221 110.793 127.221 104.98C127.221 99.1305 127.009 93.5533 126.629 88.467L162.384 52.7122Z" fill="#57E8B4"/>
<path d="M48.3984 158.086L37.0566 146.744L69.5947 114.205L43.0693 114.204L43.0693 96.8882L69.9219 96.8892L36.9434 63.9106L47.8037 53.0503L84.1523 89.3979C83.7751 94.4673 83.5654 100.023 83.5654 105.848C83.5654 111.686 83.7755 117.252 84.1543 122.331L48.3984 158.086Z" fill="#68C3FF"/>
</svg>
